<svg width="1107" height="327" viewBox="0 0 1107 327" fill="none" xmlns="http://www.w3.org/2000/svg">
<path d="M138.179 0.0166016C139.374 0.011123 140.569 0.00564453 141.8 0C180.375 0.307691 215.488 15.0551 243.429 41.3291C244.019 41.855 244.609 42.381 245.218 42.9229C261.901 58.42 271.24 79.8873 277.429 101.329C277.791 102.533 278.153 103.737 278.526 104.978C287.212 139.64 276.914 179.542 259.033 209.682C250.156 223.952 239.796 236.98 228.429 249.329C226.071 251.975 223.748 254.65 221.429 257.329C221.008 257.813 220.586 258.298 220.152 258.796C205.977 275.108 192.509 291.2 183.166 310.825C180.292 316.838 177.33 322.842 171.429 326.329C166.256 327.191 163.427 326.671 158.991 323.892C154.785 320.827 151.202 317.271 147.589 313.54C144.374 310.249 140.963 307.271 137.429 304.329C136.652 303.681 136.652 303.681 135.859 303.021C126.765 295.482 117.388 288.673 107.429 282.329C106.338 281.633 106.338 281.633 105.226 280.924C98.009 276.331 90.7739 271.768 83.4873 267.286C42.8058 242.152 13.9731 207.716 2.77637 160.583C-4.62041 125.975 3.1198 91.7561 21.7412 62.1416C26.3633 55.0227 31.7486 48.6205 37.4287 42.3291C38.0952 41.5905 38.7616 40.8518 39.4482 40.0908C56.6544 22.0153 81.2254 8.81659 105.429 3.3291C106.698 3.03133 107.968 2.73355 109.276 2.42676C118.879 0.399881 128.38 0.0491118 138.179 0.0166016ZM72.4287 64.3291C71.6205 64.9814 70.8122 65.6336 69.9795 66.3057C52.5956 80.8786 41.48 102.998 38.4287 125.329C38.1383 129.75 38.0949 134.15 38.1162 138.579C38.1204 139.768 38.1246 140.956 38.1289 142.181C38.2412 150.925 38.993 158.894 41.4287 167.329C41.6956 168.319 41.9624 169.309 42.2373 170.329C49.6868 195.227 66.5668 216.906 89.4287 229.329C98.3946 234.087 107.58 237.79 117.429 240.329C118.259 240.555 119.089 240.78 119.944 241.013C144.031 246.504 170.419 240.615 191.301 228.011C197.934 223.775 203.786 218.803 209.429 213.329C210.102 212.73 210.774 212.13 211.468 211.513C225.885 198.216 233.974 179.068 238.429 160.329C238.654 159.405 238.88 158.481 239.112 157.528C244.471 131.399 237.72 105.376 223.429 83.3291C206.33 58.9974 181.809 44.7665 152.921 39.7158C123.131 36.417 95.0959 44.7067 72.4287 64.3291Z" fill="url(#paint0_linear_315_978)"/>
<path d="M170.304 126.954C171.126 126.926 171.949 126.897 172.796 126.868C179.661 128.07 184.143 133.92 188.616 138.829C189.272 139.539 189.928 140.249 190.603 140.98C192.551 143.091 194.49 145.21 196.429 147.329C197.463 148.452 198.498 149.574 199.534 150.696C202.177 153.563 204.805 156.444 207.429 159.329C208.265 160.248 209.102 161.167 209.964 162.114C214.423 167.038 214.423 167.038 216.429 169.329C217.193 170.145 217.958 170.961 218.745 171.802C220.429 174.329 220.429 174.329 220.351 176.806C213.078 196.712 195.12 212.368 176.577 221.466C156.86 230.576 134.364 232.976 113.429 226.329C112.385 226 111.34 225.672 110.265 225.333C91.2355 218.643 69.5112 205.09 60.4287 186.329C60.7956 182.518 62.6837 180.7 65.3311 178.063C66.5444 176.851 66.5444 176.851 67.7822 175.614C68.6349 174.778 69.4877 173.941 70.3662 173.079C71.1841 172.258 72.002 171.437 72.8447 170.591C88.8991 154.675 88.8991 154.675 95.6162 154.017C103.725 154.681 108.804 160.23 114.585 165.501C118.163 167.801 120.247 167.852 124.429 167.329C126.443 166.39 126.443 166.39 127.929 164.829C128.513 164.274 129.097 163.718 129.698 163.146C131.997 160.732 134.199 158.255 136.362 155.72C142.783 148.292 149.539 141.135 156.429 134.142C157.295 133.261 158.161 132.381 159.054 131.474C162.731 128.154 165.355 127.031 170.304 126.954Z" fill="url(#paint1_linear_315_978)"/>
<path d="M105.636 79.0125C110.83 81.7398 113.612 85.8789 115.429 91.3289C115.819 97.1825 115.426 101.108 112.429 106.329C107.749 111.241 104.001 113.46 97.1161 113.641C92.052 113.595 89.3219 112.747 85.4286 109.329C84.6861 108.71 83.9436 108.091 83.1786 107.454C79.7087 103.241 79.0045 98.5879 79.1864 93.2742C79.9248 87.3428 83.4257 84.1183 87.8075 80.5281C92.662 76.9369 100.025 77.2747 105.636 79.0125Z" fill="url(#paint2_linear_315_978)"/>
<path d="M311.11 216.854V111.854H331.21L375.91 185.954H365.26L409.21 111.854H429.16L429.46 216.854H406.66L406.51 146.804H410.71L375.61 205.754H364.66L328.81 146.804H333.91V216.854H311.11ZM497.871 218.654C489.571 218.654 481.871 217.304 474.771 214.604C467.771 211.904 461.671 208.104 456.471 203.204C451.371 198.304 447.371 192.554 444.471 185.954C441.671 179.354 440.271 172.154 440.271 164.354C440.271 156.554 441.671 149.354 444.471 142.754C447.371 136.154 451.421 130.404 456.621 125.504C461.821 120.604 467.921 116.804 474.921 114.104C481.921 111.404 489.521 110.054 497.721 110.054C506.021 110.054 513.621 111.404 520.521 114.104C527.521 116.804 533.571 120.604 538.671 125.504C543.871 130.404 547.921 136.154 550.821 142.754C553.721 149.254 555.171 156.454 555.171 164.354C555.171 172.154 553.721 179.404 550.821 186.104C547.921 192.704 543.871 198.454 538.671 203.354C533.571 208.154 527.521 211.904 520.521 214.604C513.621 217.304 506.071 218.654 497.871 218.654ZM497.721 197.954C502.421 197.954 506.721 197.154 510.621 195.554C514.621 193.954 518.121 191.654 521.121 188.654C524.121 185.654 526.421 182.104 528.021 178.004C529.721 173.904 530.571 169.354 530.571 164.354C530.571 159.354 529.721 154.804 528.021 150.704C526.421 146.604 524.121 143.054 521.121 140.054C518.221 137.054 514.771 134.754 510.771 133.154C506.771 131.554 502.421 130.754 497.721 130.754C493.021 130.754 488.671 131.554 484.671 133.154C480.771 134.754 477.321 137.054 474.321 140.054C471.321 143.054 468.971 146.604 467.271 150.704C465.671 154.804 464.871 159.354 464.871 164.354C464.871 169.254 465.671 173.804 467.271 178.004C468.971 182.104 471.271 185.654 474.171 188.654C477.171 191.654 480.671 193.954 484.671 195.554C488.671 197.154 493.021 197.954 497.721 197.954ZM565.934 216.854V111.854H586.034L630.734 185.954H620.084L664.034 111.854H683.984L684.284 216.854H661.484L661.334 146.804H665.534L630.434 205.754H619.484L583.634 146.804H588.734V216.854H565.934ZM701.696 216.854V111.854H781.046V131.354H725.846V197.354H782.996V216.854H701.696ZM724.046 173.054V154.154H774.596V173.054H724.046ZM794.83 216.854V111.854H814.93L876.88 187.454H867.13V111.854H891.13V216.854H871.18L809.08 141.254H818.83V216.854H794.83ZM930.223 216.854V131.654H896.623V111.854H988.123V131.654H954.523V216.854H930.223ZM1043.23 218.654C1034.93 218.654 1027.23 217.304 1020.13 214.604C1013.13 211.904 1007.03 208.104 1001.83 203.204C996.733 198.304 992.733 192.554 989.833 185.954C987.033 179.354 985.633 172.154 985.633 164.354C985.633 156.554 987.033 149.354 989.833 142.754C992.733 136.154 996.783 130.404 1001.98 125.504C1007.18 120.604 1013.28 116.804 1020.28 114.104C1027.28 111.404 1034.88 110.054 1043.08 110.054C1051.38 110.054 1058.98 111.404 1065.88 114.104C1072.88 116.804 1078.93 120.604 1084.03 125.504C1089.23 130.404 1093.28 136.154 1096.18 142.754C1099.08 149.254 1100.53 156.454 1100.53 164.354C1100.53 172.154 1099.08 179.404 1096.18 186.104C1093.28 192.704 1089.23 198.454 1084.03 203.354C1078.93 208.154 1072.88 211.904 1065.88 214.604C1058.98 217.304 1051.43 218.654 1043.23 218.654ZM1043.08 197.954C1047.78 197.954 1052.08 197.154 1055.98 195.554C1059.98 193.954 1063.48 191.654 1066.48 188.654C1069.48 185.654 1071.78 182.104 1073.38 178.004C1075.08 173.904 1075.93 169.354 1075.93 164.354C1075.93 159.354 1075.08 154.804 1073.38 150.704C1071.78 146.604 1069.48 143.054 1066.48 140.054C1063.58 137.054 1060.13 134.754 1056.13 133.154C1052.13 131.554 1047.78 130.754 1043.08 130.754C1038.38 130.754 1034.03 131.554 1030.03 133.154C1026.13 134.754 1022.68 137.054 1019.68 140.054C1016.68 143.054 1014.33 146.604 1012.63 150.704C1011.03 154.804 1010.23 159.354 1010.23 164.354C1010.23 169.254 1011.03 173.804 1012.63 178.004C1014.33 182.104 1016.63 185.654 1019.53 188.654C1022.53 191.654 1026.03 193.954 1030.03 195.554C1034.03 197.154 1038.38 197.954 1043.08 197.954Z" fill="url(#paint3_linear_315_978)"/>
<defs>
<linearGradient id="paint0_linear_315_978" x1="140.83" y1="0" x2="140.83" y2="326.709" gradientUnits="userSpaceOnUse">
<stop stop-color="#FEA732"/>
<stop offset="1" stop-color="#FF7A34"/>
</linearGradient>
<linearGradient id="paint1_linear_315_978" x1="140.402" y1="126.868" x2="140.402" y2="230.117" gradientUnits="userSpaceOnUse">
<stop stop-color="#FEA732"/>
<stop offset="1" stop-color="#FF7A34"/>
</linearGradient>
<linearGradient id="paint2_linear_315_978" x1="97.3572" y1="77.7471" x2="97.3572" y2="113.641" gradientUnits="userSpaceOnUse">
<stop stop-color="#FEA732"/>
<stop offset="1" stop-color="#FF7A34"/>
</linearGradient>
<linearGradient id="paint3_linear_315_978" x1="402.796" y1="-343.029" x2="759.752" y2="643.641" gradientUnits="userSpaceOnUse">
<stop stop-color="#FF7A33"/>
<stop offset="1" stop-color="#FDA831"/>
</linearGradient>
</defs>
</svg>
