<svg width="72" height="72" viewBox="0 0 72 72" fill="none" xmlns="http://www.w3.org/2000/svg">
  <path transform="translate(6 6)" d="M30 0C37.3227 0 43.6175 4.37281 46.4287 10.6367C46.6794 11.1952 46.8471 11.5679 46.9736 11.834C47.0048 11.8995 47.0316 11.9508 47.0518 11.9912C47.0685 11.9919 47.0883 11.9935 47.1104 11.9941C47.3011 11.9998 47.5625 12 48 12C54.6274 12 60 17.3726 60 24C60 30.6274 54.6274 36 48 36H47.4844L41.4844 30H48C51.3137 30 54 27.3137 54 24C54 20.6863 51.3137 18 48 18C47.3385 18 46.5232 18.0158 45.8574 17.8818C45.2198 17.7535 44.4822 17.5412 43.7578 17.0723C43.0334 16.6033 42.5373 16.0175 42.1592 15.4883C41.8988 15.1238 41.6939 14.7009 41.5557 14.4102C41.394 14.0701 41.1939 13.6248 40.9551 13.0928C39.076 8.90614 34.8741 6 30 6C25.1259 6 20.924 8.90614 19.0449 13.0928C18.8062 13.6248 18.606 14.0701 18.4443 14.4102C18.3061 14.7009 18.1012 15.1238 17.8408 15.4883C17.4627 16.0175 16.9666 16.6033 16.2422 17.0723C15.5178 17.5412 14.7802 17.7535 14.1426 17.8818C13.4768 18.0158 12.6615 18 12 18C8.68629 18 6 20.6863 6 24C6 27.2022 8.51002 29.8193 11.668 29.9902L12.0371 30H18.5156L12.5156 36H11.9619L11.9238 35.999L11.4609 35.9873L11.4229 35.9863L11.3857 35.9844C5.04265 35.663 0 30.4213 0 24C0 17.3726 5.37258 12 12 12C12.4375 12 12.6989 11.9998 12.8896 11.9941C12.9113 11.9935 12.9307 11.9919 12.9473 11.9912C12.9675 11.9507 12.9951 11.8997 13.0264 11.834C13.1529 11.5679 13.3206 11.1952 13.5713 10.6367C16.3825 4.37282 22.6773 0 30 0Z" fill="#3B7DD8"/>
  <path d="M36 52V28M27 38L36 28L45 38" stroke="#3B7DD8" stroke-width="6" stroke-linecap="round" stroke-linejoin="round" fill="none"/>
</svg>
