<svg width="72" height="72" viewBox="0 0 72 72" fill="none" xmlns="http://www.w3.org/2000/svg">
  <circle cx="36" cy="36" r="27" stroke="#3B7DD8" stroke-width="6"/>
  <path transform="translate(32.69 15.60)" d="M25.8082 2.4L21.4082 5.7C20.3696 6.47893 19.1064 6.9 17.8082 6.9H7.7332C5.94057 6.9 4.3018 7.91282 3.50011 9.51619C2.5108 11.4948 3.02412 13.8948 4.73625 15.2957L10.7362 20.2047C15.458 24.068 17.9015 30.0601 17.2278 36.1237L17.089 37.373C16.9023 39.053 16.5387 40.7085 16.0042 42.3121L15.3082 44.4" stroke="#3B7DD8" stroke-width="6"/>
  <path transform="translate(7.01 26.80)" d="M0.493197 4.70404L10.2075 3.085C14.2684 2.40817 17.7891 5.92882 17.1122 9.98975L16.7087 12.411C15.9862 16.7459 18.1755 21.0452 22.1063 23.0106C25.2538 24.5843 26.886 28.133 26.0325 31.547L24.4932 37.704" stroke="#3B7DD8" stroke-width="6"/>
</svg>
