<svg width="72" height="72" viewBox="0 0 72 72" fill="none" xmlns="http://www.w3.org/2000/svg">
  <path transform="translate(12 3)" d="M25.1943 50.4121L26.5756 53.0752L26.5756 53.0752L25.1943 50.4121ZM22.8057 50.4121L21.4244 53.0752L21.4244 53.0752L22.8057 50.4121ZM24 3V6C33.9411 6 42 14.0589 42 24H45H48C48 10.7452 37.2548 0 24 0V3ZM45 24H42C42 30.4373 38.7237 35.7477 34.635 39.8719C30.5491 43.9933 25.9028 46.6651 23.813 47.749L25.1943 50.4121L26.5756 53.0752C28.9348 51.8515 34.1913 48.8417 38.896 44.0962C43.5979 39.3534 48 32.6116 48 24H45ZM25.1943 50.4121L23.813 47.749C23.8546 47.7275 23.9201 47.7072 24 47.7072C24.0799 47.7072 24.1454 47.7275 24.187 47.749L22.8057 50.4121L21.4244 53.0752C23.049 53.9179 24.951 53.9179 26.5756 53.0752L25.1943 50.4121ZM22.8057 50.4121L24.187 47.749C22.0972 46.6651 17.4509 43.9933 13.365 39.8719C9.27626 35.7477 6 30.4373 6 24H3H0C0 32.6116 4.40211 39.3534 9.10402 44.0962C13.8087 48.8417 19.0652 51.8515 21.4244 53.0752L22.8057 50.4121ZM3 24H6C6 14.0589 14.0589 6 24 6V3V0C10.7452 0 0 10.7452 0 24H3ZM24 15V12C17.3726 12 12 17.3726 12 24H15H18C18 20.6863 20.6863 18 24 18V15ZM15 24H12C12 30.6274 17.3726 36 24 36V33V30C20.6863 30 18 27.3137 18 24H15ZM24 33V36C30.6274 36 36 30.6274 36 24H33H30C30 27.3137 27.3137 30 24 30V33ZM33 24H36C36 17.3726 30.6274 12 24 12V15V18C27.3137 18 30 20.6863 30 24H33Z" fill="#3B7DD8"/>
  <path transform="translate(6 49.5)" d="M53.3827 3.0005C55.7524 4.36867 57 5.92067 57 7.5005C57 9.08033 55.7524 10.6323 53.3827 12.0005C51.0129 13.3687 47.6045 14.5048 43.5 15.2947C39.3955 16.0846 34.7395 16.5005 30 16.5005C25.2605 16.5005 20.6045 16.0846 16.5 15.2947C12.3955 14.5048 8.98706 13.3687 6.61732 12.0005C4.24757 10.6323 3 9.08033 3 7.5005C3 5.92067 4.24757 4.36868 6.61731 3.0005" stroke="#3B7DD8" stroke-width="6" stroke-linecap="round"/>
</svg>
