<svg preserveAspectRatio="none" width="100%" height="100%" overflow="visible" style="display: block;" viewBox="0 0 20.2838 37.9808" fill="none" xmlns="http://www.w3.org/2000/svg">
<g id="Red Pin">
<path id="Ellipse 4" d="M10.1416 13.4479C12.8551 13.4479 15.2902 14.1974 17.0322 15.3835C18.7767 16.5713 19.7841 18.1607 19.7842 19.8532C19.7842 21.5457 18.7766 23.1351 17.0322 24.3229C15.2902 25.509 12.8551 26.2594 10.1416 26.2594C7.42822 26.2594 4.99391 25.509 3.25196 24.3229C1.5074 23.135 0.500009 21.5458 0.500009 19.8532C0.500113 18.1607 1.50746 16.5713 3.25196 15.3835C4.9939 14.1975 7.42832 13.448 10.1416 13.4479Z" fill="var(--fill-0, #FF7262)" stroke="var(--stroke-0, #F24E1E)"/>
<ellipse id="Ellipse 3" cx="7.05521" cy="19.8535" rx="6.17331" ry="5.17915" fill="var(--fill-0, #F3A38C)"/>
<g id="Union">
<mask id="path-3-inside-1_6_209" fill="white">
<path d="M14.9927 20.0383H14.9419C14.6058 21.3979 12.5857 22.4435 10.1421 22.4436C7.6984 22.4436 5.67738 21.398 5.34136 20.0383H5.29156L5.29156 11.2219H14.9927V20.0383Z"/>
</mask>
<path d="M14.9927 20.0383H14.9419C14.6058 21.3979 12.5857 22.4435 10.1421 22.4436C7.6984 22.4436 5.67738 21.398 5.34136 20.0383H5.29156L5.29156 11.2219H14.9927V20.0383Z" fill="var(--fill-0, #FF7262)"/>
<path d="M14.9927 20.0383V21.0383H15.9927V20.0383H14.9927ZM14.9419 20.0383V19.0383H14.1591L13.9712 19.7983L14.9419 20.0383ZM10.1421 22.4436V23.4436H10.1422L10.1421 22.4436ZM5.34136 20.0383L6.31215 19.7984L6.12431 19.0383H5.34136L5.34136 20.0383ZM5.29156 20.0383H4.29156V21.0383H5.29156V20.0383ZM5.29156 11.2219V10.2219H4.29156V11.2219H5.29156ZM14.9927 11.2219H15.9927V10.2219H14.9927V11.2219ZM14.9927 20.0383V19.0383H14.9419V20.0383V21.0383H14.9927V20.0383ZM14.9419 20.0383L13.9712 19.7983C13.9008 20.0828 13.5989 20.4952 12.8808 20.8585C12.1874 21.2094 11.2299 21.4436 10.1421 21.4436L10.1421 22.4436L10.1422 23.4436C11.4979 23.4436 12.7723 23.1549 13.7838 22.643C14.7708 22.1436 15.6469 21.3534 15.9127 20.2783L14.9419 20.0383ZM10.1421 22.4436V21.4436C9.05422 21.4436 8.09646 21.2094 7.40275 20.8585C6.68437 20.4951 6.38243 20.0828 6.31215 19.7984L5.34136 20.0383L4.37057 20.2782C4.63631 21.3535 5.51289 22.1438 6.49996 22.6431C7.51171 23.155 8.78632 23.4436 10.1421 23.4436V22.4436ZM5.34136 20.0383L5.34136 19.0383H5.29156V20.0383V21.0383H5.34136V20.0383ZM5.29156 20.0383H6.29156V11.2219H5.29156H4.29156L4.29156 20.0383H5.29156ZM5.29156 11.2219V12.2219H14.9927V11.2219V10.2219H5.29156V11.2219ZM14.9927 11.2219H13.9927V20.0383H14.9927H15.9927V11.2219H14.9927Z" fill="var(--stroke-0, #F24E1E)" mask="url(#path-3-inside-1_6_209)"/>
</g>
<rect id="Rectangle 4" x="6.17331" y="12.0849" width="1.7638" height="6.04234" fill="var(--fill-0, #F3A38C)"/>
<path id="Ellipse 1" d="M10.1417 0.50007C14.6201 0.50007 18.0194 3.28675 18.0197 6.4737C18.0197 9.66078 14.6202 12.4483 10.1417 12.4483C5.66331 12.4483 2.2638 9.66075 2.2638 6.4737C2.26401 3.28679 5.66345 0.500127 10.1417 0.50007Z" fill="var(--fill-0, #FF7262)" stroke="var(--stroke-0, #F24E1E)"/>
<ellipse id="Ellipse 2" cx="7.05532" cy="5.61108" rx="3.52761" ry="3.02117" fill="var(--fill-0, #F3A38C)"/>
<rect id="Rectangle 5" x="8.81919" y="26.7593" width="1.7638" height="11.2215" fill="var(--fill-0, #DDDADA)"/>
</g>
</svg>
